<svg id="visual" viewBox="0 0 400 400" width="400" height="400" xmlns="http://www.w3.org/2000/svg" xmlns:xlink="http://www.w3.org/1999/xlink" version="1.1"><g transform="translate(175.728666424852 220.0513161410002)"><path d="M100.6 -150.7C138.5 -132.2 183 -118 204.7 -88.2C226.5 -58.5 225.6 -13.1 203.4 17.9C181.3 48.8 137.9 65.3 108.6 87.9C79.4 110.5 64.4 139.2 40.3 154C16.2 168.9 -17 169.8 -49.9 163.2C-82.8 156.6 -115.5 142.5 -132.7 117.7C-149.9 92.9 -151.7 57.5 -157.9 22C-164.1 -13.5 -174.9 -49.1 -171.3 -87C-167.7 -124.9 -149.8 -165.1 -118.9 -186.8C-87.9 -208.5 -44 -211.8 -6.3 -201.9C31.4 -192.1 62.7 -169.3 100.6 -150.7" fill="#002F61"></path></g></svg>