<svg id="visual" viewBox="0 0 900 600" width="900" height="600" xmlns="http://www.w3.org/2000/svg" xmlns:xlink="http://www.w3.org/1999/xlink" version="1.1"><g transform="translate(472.7155280655906 331.22528871928216)"><path d="M212 -260.8C263.7 -209.2 286.9 -132 267.2 -72.5C247.4 -13 184.6 28.6 150.1 84.9C115.5 141.2 109.2 212 72.7 244.8C36.3 277.5 -30.4 272.2 -88.2 248.5C-145.9 224.7 -194.6 182.6 -240 127.3C-285.3 72 -327.3 3.4 -318.4 -57.7C-309.4 -118.7 -249.5 -172.4 -188 -222.2C-126.4 -272 -63.2 -318 8.5 -328.1C80.1 -338.2 160.3 -312.3 212 -260.8" fill="#F4F4F4"></path></g></svg>