<svg id="visual" viewBox="0 0 400 400" width="400" height="400" xmlns="http://www.w3.org/2000/svg" xmlns:xlink="http://www.w3.org/1999/xlink" version="1.1"><g transform="translate(183.85634862427304 218.3535959951207)"><path d="M98.8 -158.1C132.8 -132 168.3 -112.5 187.5 -82.2C206.8 -51.8 209.8 -10.6 197.4 23.6C185 57.7 157.1 84.9 127.5 99.7C97.9 114.6 66.6 117.3 35.3 131.6C4.1 145.8 -27 171.8 -58.4 173.9C-89.8 176.1 -121.6 154.5 -142.6 126C-163.6 97.4 -173.9 62 -172.4 28.8C-170.9 -4.4 -157.8 -35.2 -138.5 -57.4C-119.3 -79.6 -94 -93.2 -69.9 -123.9C-45.8 -154.6 -22.9 -202.3 4.8 -209.7C32.4 -217.1 64.9 -184.3 98.8 -158.1" fill="#002F61"></path></g></svg>