<svg id="visual" viewBox="0 0 1900 300" width="1900" height="300" xmlns="http://www.w3.org/2000/svg" xmlns:xlink="http://www.w3.org/1999/xlink" version="1.1"><path d="M0 175L26.3 160.3C52.7 145.7 105.3 116.3 158.2 113.7C211 111 264 135 316.8 159.2C369.7 183.3 422.3 207.7 475 200.8C527.7 194 580.3 156 633.2 154C686 152 739 186 791.8 174.2C844.7 162.3 897.3 104.7 950 86.5C1002.7 68.3 1055.3 89.7 1108.2 123.8C1161 158 1214 205 1266.8 226.5C1319.7 248 1372.3 244 1425 232.3C1477.7 220.7 1530.3 201.3 1583.2 167.3C1636 133.3 1689 84.7 1741.8 87.2C1794.7 89.7 1847.3 143.3 1873.7 170.2L1900 197L1900 0L1873.7 0C1847.3 0 1794.7 0 1741.8 0C1689 0 1636 0 1583.2 0C1530.3 0 1477.7 0 1425 0C1372.3 0 1319.7 0 1266.8 0C1214 0 1161 0 1108.2 0C1055.3 0 1002.7 0 950 0C897.3 0 844.7 0 791.8 0C739 0 686 0 633.2 0C580.3 0 527.7 0 475 0C422.3 0 369.7 0 316.8 0C264 0 211 0 158.2 0C105.3 0 52.7 0 26.3 0L0 0Z" fill="#F4F4F4" stroke-linecap="round" stroke-linejoin="miter"></path></svg>