<svg id="visual" viewBox="0 0 1900 100" width="1900" height="100" xmlns="http://www.w3.org/2000/svg" xmlns:xlink="http://www.w3.org/1999/xlink" version="1.1"><path d="M0 58L28.8 53.2C57.7 48.3 115.3 38.7 172.8 39.5C230.3 40.3 287.7 51.7 345.2 58C402.7 64.3 460.3 65.7 518 58.7C575.7 51.7 633.3 36.3 691 27.7C748.7 19 806.3 17 863.8 15.8C921.3 14.7 978.7 14.3 1036.2 21C1093.7 27.7 1151.3 41.3 1209 51.2C1266.7 61 1324.3 67 1382 60.5C1439.7 54 1497.3 35 1554.8 30.2C1612.3 25.3 1669.7 34.7 1727.2 44.5C1784.7 54.3 1842.3 64.7 1871.2 69.8L1900 75L1900 101L1871.2 101C1842.3 101 1784.7 101 1727.2 101C1669.7 101 1612.3 101 1554.8 101C1497.3 101 1439.7 101 1382 101C1324.3 101 1266.7 101 1209 101C1151.3 101 1093.7 101 1036.2 101C978.7 101 921.3 101 863.8 101C806.3 101 748.7 101 691 101C633.3 101 575.7 101 518 101C460.3 101 402.7 101 345.2 101C287.7 101 230.3 101 172.8 101C115.3 101 57.7 101 28.8 101L0 101Z" fill="#F4F4F4" stroke-linecap="round" stroke-linejoin="miter"></path></svg>