<svg id="visual" viewBox="0 0 1900 300" width="1900" height="300" xmlns="http://www.w3.org/2000/svg" xmlns:xlink="http://www.w3.org/1999/xlink" version="1.1"><path d="M0 213L26.3 211.5C52.7 210 105.3 207 158.2 190.2C211 173.3 264 142.7 316.8 150.2C369.7 157.7 422.3 203.3 475 211.8C527.7 220.3 580.3 191.7 633.2 157.5C686 123.3 739 83.7 791.8 100.3C844.7 117 897.3 190 950 215C1002.7 240 1055.3 217 1108.2 187.7C1161 158.3 1214 122.7 1266.8 120.7C1319.7 118.7 1372.3 150.3 1425 150.5C1477.7 150.7 1530.3 119.3 1583.2 96.2C1636 73 1689 58 1741.8 74.3C1794.7 90.7 1847.3 138.3 1873.7 162.2L1900 186L1900 301L1873.7 301C1847.3 301 1794.7 301 1741.8 301C1689 301 1636 301 1583.2 301C1530.3 301 1477.7 301 1425 301C1372.3 301 1319.7 301 1266.8 301C1214 301 1161 301 1108.2 301C1055.3 301 1002.7 301 950 301C897.3 301 844.7 301 791.8 301C739 301 686 301 633.2 301C580.3 301 527.7 301 475 301C422.3 301 369.7 301 316.8 301C264 301 211 301 158.2 301C105.3 301 52.7 301 26.3 301L0 301Z" fill="#F4F4F4" stroke-linecap="round" stroke-linejoin="miter"></path></svg>