<svg id="visual" viewBox="0 0 1900 80" width="1900" height="80" xmlns="http://www.w3.org/2000/svg" xmlns:xlink="http://www.w3.org/1999/xlink" version="1.1"><path d="M0 26L26.3 31.8C52.7 37.7 105.3 49.3 158.2 47.8C211 46.3 264 31.7 316.8 25.7C369.7 19.7 422.3 22.3 475 29.8C527.7 37.3 580.3 49.7 633.2 51.7C686 53.7 739 45.3 791.8 39C844.7 32.7 897.3 28.3 950 31.2C1002.7 34 1055.3 44 1108.2 42.7C1161 41.3 1214 28.7 1266.8 22.7C1319.7 16.7 1372.3 17.3 1425 21.8C1477.7 26.3 1530.3 34.7 1583.2 42C1636 49.3 1689 55.7 1741.8 58C1794.7 60.3 1847.3 58.7 1873.7 57.8L1900 57L1900 0L1873.7 0C1847.3 0 1794.7 0 1741.8 0C1689 0 1636 0 1583.2 0C1530.3 0 1477.7 0 1425 0C1372.3 0 1319.7 0 1266.8 0C1214 0 1161 0 1108.2 0C1055.3 0 1002.7 0 950 0C897.3 0 844.7 0 791.8 0C739 0 686 0 633.2 0C580.3 0 527.7 0 475 0C422.3 0 369.7 0 316.8 0C264 0 211 0 158.2 0C105.3 0 52.7 0 26.3 0L0 0Z" fill="#F4F4F4" stroke-linecap="round" stroke-linejoin="miter"></path></svg>