<svg id="visual" viewBox="0 0 1900 80" width="1900" height="80" xmlns="http://www.w3.org/2000/svg" xmlns:xlink="http://www.w3.org/1999/xlink" version="1.1"><path d="M0 23L28.8 29.5C57.7 36 115.3 49 172.8 55.7C230.3 62.3 287.7 62.7 345.2 62C402.7 61.3 460.3 59.7 518 54.8C575.7 50 633.3 42 691 43.3C748.7 44.7 806.3 55.3 863.8 53.8C921.3 52.3 978.7 38.7 1036.2 33.3C1093.7 28 1151.3 31 1209 34.3C1266.7 37.7 1324.3 41.3 1382 46.2C1439.7 51 1497.3 57 1554.8 54.7C1612.3 52.3 1669.7 41.7 1727.2 33.5C1784.7 25.3 1842.3 19.7 1871.2 16.8L1900 14L1900 81L1871.2 81C1842.3 81 1784.7 81 1727.2 81C1669.7 81 1612.3 81 1554.8 81C1497.3 81 1439.7 81 1382 81C1324.3 81 1266.7 81 1209 81C1151.3 81 1093.7 81 1036.2 81C978.7 81 921.3 81 863.8 81C806.3 81 748.7 81 691 81C633.3 81 575.7 81 518 81C460.3 81 402.7 81 345.2 81C287.7 81 230.3 81 172.8 81C115.3 81 57.7 81 28.8 81L0 81Z" fill="#F4F4F4" stroke-linecap="round" stroke-linejoin="miter"></path></svg>